# xmcd
#
# Track frame offsets: 
#        150
#        9007
#        24285
#        34107
#        42447
#        58244
#        71332
#        78042
#        93878
#        104959
#
# Disc length: 1516 seconds
#
# Revision: 0
# Processed by: cddbd v1.5.2PL0 Copyright (c) Steve Scherf et al.
# Submitted via: ExactAudioCopy v1.3
#
DISCID=7105ea0a
DTITLE=Boxcar Willie - Essential Hits-Boxcar Willie
DYEAR=1994
DGENRE=Country
TTITLE0=Don't Let the Stars
TTITLE1=Wabash Cannonball
TTITLE2=King of the Road
TTITLE3=Hey Good Lookin
TTITLE4=Red River Valley
TTITLE5=San Antonio Rose
TTITLE6=I Saw the Light
TTITLE7=Mule Train
TTITLE8=Wreck if the Old 97
TTITLE9=Hank and the Hobo
EXTD=
EXTT0=
EXTT1=
EXTT2=
EXTT3=
EXTT4=
EXTT5=
EXTT6=
EXTT7=
EXTT8=
EXTT9=
PLAYORDER=
